# xmcd
#
# Track frame offsets: 
#        182
#        12237
#        22245
#        34745
#        45207
#        58265
#        70452
#        82612
#        95980
#        108512
#
# Disc length: 1621 seconds
#
# Revision: 4
# Processed by: cddbd v1.5.2PL0 Copyright (c) Steve Scherf et al.
# Submitted via: ExactAudioCopy v1.0b1
#
DISCID=8006530a
DTITLE=Various Artist - Best of Chicago Blues (Flashback Records)
DYEAR=1998
DGENRE=
TTITLE0=Buddy Guy - You Sure Can't Do
TTITLE1=J.B. Lenoir - I Feel So Good
TTITLE2=Jimmy Reed - Big Boss Man
TTITLE3=Koko Taylor - Honky Tonky
TTITLE4=Magic Sam - All Night Long
TTITLE5=Junior Wells - Two Headed Woman
TTITLE6=Fenton Robinson - Say You're Leavin'
TTITLE7=Detroit Junior - Call My Job
TTITLE8=Snooky Prior - Telephone Blues
TTITLE9=Otis Rush - All Your Love
EXTD=
EXTT0=
EXTT1=
EXTT2=
EXTT3=
EXTT4=
EXTT5=
EXTT6=
EXTT7=
EXTT8=
EXTT9=
PLAYORDER=
